<svg xmlns="http://www.w3.org/2000/svg" width="182" height="182" fill="none" viewBox="0 0 182 182">
    <rect width="182" height="182" fill="#fff" rx="4"/>
    <g clip-path="url(#clip0)">
        <path fill="url(#paint0_linear)" fill-rule="evenodd" d="M29 130.989h62.665L153 70H29v60.989z" clip-rule="evenodd"/>
        <path fill="#fff" fill-rule="evenodd" d="M102.587 81.466H90.383v28.854L79.72 81.466H69.147l-9.106 24.124c-.964-6.078-7.294-8.174-12.275-9.76-3.296-1.048-6.775-2.601-6.745-4.303.022-1.397 1.868-2.7 5.523-2.504 2.455.134 4.626.327 8.927 2.397l4.252-7.346c-4.317-2.068-9.034-3.179-13.826-3.255h-.03c-5.194 0-9.524 1.68-12.204 4.437-1.857 1.895-2.904 4.431-2.922 7.078-.067 3.715 1.304 6.364 4.197 8.474 2.428 1.773 5.548 2.928 8.295 3.775 3.386 1.041 6.15 1.947 6.117 3.883-.015.708-.3 1.384-.796 1.891-.848.869-2.145 1.196-3.935 1.23-3.464.07-6.027-.468-10.089-2.865l-3.77 7.431c4.216 2.38 8.978 3.639 13.826 3.656h.635c4.286-.074 7.743-1.293 10.508-3.504.15-.118.299-.252.444-.371l-1.255 3.255H66l1.868-5.626c4.186 1.346 8.689 1.364 12.885.052l1.793 5.574h18.079V107.53h3.946c9.528 0 15.175-4.83 15.175-12.919-.012-9.01-5.493-13.145-17.16-13.145zm-28.208 24.696c-1.335.007-2.66-.226-3.913-.687l3.872-12.135h.063l3.793 12.172c-1.225.433-2.515.653-3.815.65zm28.926-6.977h-2.691v-9.78h2.691c3.587 0 6.442 1.182 6.442 4.83 0 3.764-2.855 4.946-6.442 4.946" clip-rule="evenodd"/>
        <path fill="#225FBC" d="M106.664 127.036c.018-.631.222-1.242.587-1.758s.875-.914 1.465-1.143c.591-.23 1.237-.281 1.857-.148.62.133 1.187.445 1.63.897.443.451.742 1.022.86 1.642.119.62.051 1.26-.195 1.842-.245.581-.658 1.078-1.186 1.428-.528.35-1.147.537-1.782.539-.432.002-.861-.082-1.26-.248-.399-.166-.76-.411-1.062-.719-.302-.308-.539-.673-.696-1.074-.157-.4-.231-.828-.218-1.258zM109.9 131c.784-.012 1.548-.253 2.194-.695.646-.442 1.147-1.063 1.439-1.787.293-.723.363-1.517.204-2.28-.16-.763-.543-1.463-1.101-2.011-.558-.547-1.266-.919-2.036-1.068-.77-.148-1.567-.068-2.291.232-.724.3-1.342.806-1.778 1.455-.435.648-.669 1.41-.67 2.19-.002.525.101 1.046.304 1.531.203.486.501.926.878 1.295.376.369.822.66 1.313.855.491.196 1.016.292 1.544.283zm-.84-3.637h.799l1.207 1.976h.781l-1.308-2.01c.673-.078 1.192-.435 1.192-1.252 0-.899-.538-1.297-1.618-1.297h-1.749v4.559h.696v-1.976zm0-.587v-1.409h.949c.474 0 .99.101.99.669 0 .702-.523.743-1.121.743l-.818-.003z"/>
    </g>
    <defs>
        <linearGradient id="paint0_linear" x1="91" x2="91" y1="131.078" y2="70.085" gradientUnits="userSpaceOnUse">
            <stop stop-color="#225FBC"/>
            <stop offset="1" stop-color="#1FB2F0"/>
        </linearGradient>
        <clipPath id="clip0">
            <path fill="#fff" d="M0 0H124V61H0z" transform="translate(29 70)"/>
        </clipPath>
    </defs>
</svg>
