<svg xmlns="http://www.w3.org/2000/svg" width="182" height="182" fill="none" viewBox="0 0 182 182">
    <rect width="182" height="182" fill="#fff" rx="4"/>   
    <g fill="#000" opacity=".3">
        <path d="M97.22 124.788c-.9-.368-1.926.062-2.294.96l-1.568 3.827c-.368.898.061 1.925.96 2.293.898.368 1.925-.061 2.293-.96l1.568-3.826c.368-.899-.061-1.925-.96-2.294zM67.922 124.788c-.898-.368-1.925.062-2.293.96l-1.568 3.827c-.368.898.062 1.925.96 2.293.898.368 1.925-.061 2.293-.96l1.568-3.826c.368-.899-.061-1.925-.96-2.294zM77.688 124.788c-.898-.368-1.925.062-2.293.96l-1.568 3.827c-.369.898.061 1.925.96 2.293.898.368 1.924-.061 2.293-.96l1.568-3.826c.368-.899-.062-1.925-.96-2.294zM87.454 124.788c-.899-.368-1.925.062-2.293.96l-1.569 3.827c-.368.898.062 1.925.96 2.293.899.368 1.925-.061 2.293-.96l1.569-3.826c.368-.899-.062-1.925-.96-2.294zM119.242 88.406h-2.344c-.97 0-1.757.787-1.757 1.758 0 .97.787 1.758 1.757 1.758h2.344c.971 0 1.758-.787 1.758-1.758 0-.97-.787-1.758-1.758-1.758zM111.536 81.463c.687.687 1.8.687 2.486 0l1.658-1.657c.686-.686.686-1.8 0-2.486-.687-.686-1.8-.686-2.486 0l-1.658 1.657c-.686.687-.686 1.8 0 2.486zM102.836 77.86c.971 0 1.758-.788 1.758-1.758v-2.344c0-.971-.787-1.758-1.758-1.758s-1.758.787-1.758 1.758v2.344c0 .97.787 1.757 1.758 1.757zM91.65 81.463c.686.687 1.799.687 2.485 0 .687-.686.687-1.8 0-2.485l-1.657-1.658c-.687-.686-1.8-.686-2.486 0-.687.687-.687 1.8 0 2.486l1.657 1.657zM114.022 98.865c-.686-.687-1.799-.687-2.486 0-.686.686-.686 1.799 0 2.486l1.658 1.657c.686.686 1.799.686 2.486 0 .686-.687.686-1.8 0-2.486l-1.658-1.657z"/>
        <path d="M107.482 98.968c3.158-1.672 5.315-4.99 5.315-8.804 0-5.492-4.469-9.96-9.961-9.96-3.255 0-6.253 1.583-8.099 4.162-2.49-1.525-5.414-2.405-8.542-2.405-8.498 0-15.508 6.495-16.326 14.782-5.021.806-8.869 5.168-8.869 10.413 0 4.956 3.435 9.123 8.05 10.248l-.698 1.701c-.368.898.062 1.925.96 2.293.898.368 1.925-.062 2.293-.96l1.121-2.735h5.966l-.574 1.402c-.368.898.061 1.925.96 2.293.898.368 1.925-.062 2.293-.96l1.12-2.735h5.967l-.575 1.402c-.368.898.062 1.925.96 2.293.898.368 1.925-.062 2.293-.96l1.121-2.735h5.966l-.574 1.402c-.368.898.061 1.925.96 2.293.898.368 1.925-.062 2.293-.96l1.149-2.804c5.249-.602 9.34-5.071 9.34-10.478 0-3.302-1.526-6.253-3.909-8.188zm-4.646-15.25c3.554 0 6.445 2.892 6.445 6.446s-2.891 6.445-6.445 6.445c-.11 0-.22-.004-.33-.01-.425-3.948-2.256-7.48-4.98-10.086 1.187-1.728 3.162-2.794 5.31-2.794zm-1.992 30.469H71.547c-3.877 0-7.031-3.154-7.031-7.031 0-3.316 2.308-6.101 5.401-6.838.19 1.588.607 3.133 1.252 4.612.289.661.935 1.055 1.613 1.055.234 0 .473-.048.702-.147.89-.389 1.296-1.425.908-2.315-.712-1.631-1.074-3.367-1.077-5.158.089-7.032 5.827-12.888 12.88-12.888 6.569 0 12.005 4.938 12.793 11.297-2.111.373-4.055 1.377-5.602 2.925-.686.686-.686 1.799 0 2.485.343.344.793.515 1.243.515.45 0 .9-.171 1.243-.515 1.328-1.328 3.094-2.059 4.972-2.059 3.877 0 7.031 3.154 7.031 7.031s-3.154 7.031-7.031 7.031z"/>
    </g>
</svg>
