<?xml version="1.0" standalone="no"?>
<!DOCTYPE svg PUBLIC "-//W3C//DTD SVG 20010904//EN"
 "http://www.w3.org/TR/2001/REC-SVG-20010904/DTD/svg10.dtd">
<svg version="1.0" xmlns="http://www.w3.org/2000/svg"
 width="700.000000pt" height="700.000000pt" viewBox="0 0 700.000000 700.000000"
 preserveAspectRatio="xMidYMid meet">
<metadata>
Created by potrace 1.11, written by Peter Selinger 2001-2013
</metadata>
<g transform="translate(0.000000,700.000000) scale(0.100000,-0.100000)"
fill="#000000" stroke="none">
<path d="M2038 6995 c-2 -1 -30 -5 -63 -9 -108 -10 -143 -15 -230 -32 -85 -16
-119 -26 -132 -36 -7 -5 -16 -7 -20 -5 -5 3 -24 -2 -43 -10 -19 -9 -42 -15
-52 -14 -9 1 -19 -3 -23 -9 -3 -5 -15 -10 -26 -10 -13 0 -18 -4 -13 -12 4 -6
3 -8 -4 -4 -15 9 -143 -44 -135 -57 4 -6 1 -7 -6 -3 -16 10 -73 -13 -64 -27 3
-6 1 -7 -5 -3 -12 7 -102 -33 -102 -47 0 -4 -4 -6 -9 -3 -5 3 -14 -1 -21 -9
-7 -8 -19 -15 -26 -15 -8 0 -14 -4 -14 -10 0 -5 -7 -10 -15 -10 -8 0 -15 -4
-15 -10 0 -5 -5 -10 -11 -10 -28 0 -271 -188 -262 -203 3 -6 1 -7 -5 -3 -6 4
-17 -2 -24 -14 -7 -11 -16 -20 -20 -20 -13 0 -47 -33 -42 -41 2 -4 -5 -11 -17
-14 -13 -4 -18 -12 -15 -21 3 -8 1 -12 -4 -9 -5 3 -24 -11 -42 -31 -18 -21
-39 -43 -46 -51 -7 -7 -10 -18 -6 -24 4 -7 3 -9 -3 -6 -6 4 -30 -19 -54 -51
-24 -31 -47 -59 -50 -62 -8 -7 -109 -158 -109 -164 0 -2 -16 -32 -36 -65 -21
-35 -34 -68 -30 -76 3 -9 2 -14 -3 -11 -5 3 -13 0 -18 -7 -18 -23 -105 -245
-106 -271 -1 -14 -6 -26 -11 -26 -4 0 -6 -9 -3 -20 3 -11 1 -18 -3 -15 -10 6
-53 -173 -46 -192 4 -9 2 -11 -6 -7 -7 5 -9 0 -6 -14 4 -12 3 -24 -2 -27 -4
-3 -11 -33 -15 -67 -4 -35 -9 -72 -12 -83 -2 -11 -6 -154 -9 -318 -4 -241 -2
-297 8 -291 10 6 11 5 1 -7 -10 -12 -12 -291 -9 -1245 2 -676 6 -1242 10
-1259 3 -16 11 -59 16 -95 13 -80 18 -105 20 -105 2 0 4 -9 5 -20 7 -49 17
-90 23 -95 4 -3 8 -13 8 -23 3 -35 47 -166 55 -162 4 3 5 -5 1 -17 -3 -14 -1
-19 6 -14 8 5 10 2 6 -8 -3 -9 -2 -16 3 -16 5 0 10 -6 10 -13 0 -27 36 -106
46 -100 6 3 7 1 3 -5 -14 -23 176 -348 197 -335 6 3 7 1 3 -6 -8 -12 41 -78
54 -74 4 1 7 -4 6 -11 -2 -23 155 -194 265 -288 30 -25 68 -58 84 -72 29 -25
40 -30 58 -27 5 1 6 -3 3 -7 -3 -5 22 -28 55 -52 52 -36 62 -40 77 -28 15 12
16 11 3 -4 -11 -15 -11 -19 5 -24 11 -4 27 -14 36 -21 9 -8 22 -12 28 -8 6 3
9 3 8 -2 -2 -4 1 -9 6 -10 5 -1 12 -6 15 -11 11 -17 195 -103 209 -97 7 2 11
1 8 -4 -8 -12 139 -65 155 -56 7 5 10 4 6 -2 -4 -6 36 -22 98 -40 96 -28 105
-29 121 -14 16 15 17 15 6 0 -11 -14 -5 -18 45 -27 32 -6 81 -14 108 -17 28
-4 61 -9 75 -12 14 -3 283 -7 598 -9 459 -3 572 -2 566 8 -6 10 -5 10 7 1 22
-18 883 -17 872 0 -5 9 -3 9 8 0 21 -17 642 -16 632 0 -4 7 1 6 10 -1 13 -11
55 -13 204 -8 103 3 199 8 213 10 14 3 48 7 75 11 28 3 51 10 53 15 2 5 10 6
18 3 24 -9 85 6 77 20 -5 9 -3 9 9 0 8 -7 17 -10 21 -7 5 5 36 14 102 29 11 3
58 19 105 35 47 17 100 35 118 41 46 14 264 127 345 178 38 24 64 47 60 53 -3
7 -1 8 5 4 12 -7 102 51 102 66 0 4 6 8 13 8 11 0 60 43 210 184 20 20 37 38
37 40 0 2 18 23 40 46 22 23 37 47 34 52 -4 6 -2 8 4 4 12 -7 71 67 148 184
89 136 167 287 158 302 -4 6 -3 8 3 5 10 -6 23 23 22 47 -1 5 4 12 9 15 6 3
12 15 14 26 1 11 6 22 9 25 11 9 70 201 64 210 -3 5 -1 11 4 14 9 6 43 137 39
153 0 5 2 15 5 23 23 56 30 216 33 719 3 423 1 548 -9 559 -7 10 -8 13 -1 9 9
-5 12 78 12 313 1 249 -1 319 -11 313 -8 -4 -8 -2 1 9 11 14 13 140 10 661 -3
554 -5 647 -18 662 -11 14 -11 17 -1 11 10 -6 12 -4 8 10 -9 31 -21 118 -18
133 1 7 -2 10 -7 7 -5 -3 -7 6 -4 19 2 14 0 25 -5 25 -6 0 -8 12 -5 26 3 15 1
25 -4 21 -5 -3 -9 9 -10 27 -1 44 -92 323 -113 343 -9 9 -15 18 -13 20 1 2 2
10 2 19 0 11 -5 14 -17 9 -14 -5 -15 -4 -6 6 10 10 1 34 -41 113 -56 106 -159
266 -195 304 -12 12 -19 22 -16 22 3 0 -3 8 -12 18 -10 10 -37 41 -60 68 -75
89 -134 145 -145 138 -6 -4 -8 -3 -5 4 4 5 -21 34 -54 64 -34 29 -67 58 -73
63 -30 27 -96 75 -101 75 -4 0 -13 6 -20 13 -30 26 -43 35 -110 76 -38 23 -75
39 -83 36 -7 -2 -10 -1 -7 5 8 12 -202 113 -221 106 -8 -3 -13 -2 -9 3 6 10
-60 37 -160 66 -33 10 -67 20 -75 23 -8 3 -19 6 -25 7 -5 2 -28 7 -50 13 -22
6 -80 18 -130 26 -49 8 -108 18 -130 22 -37 7 -3020 16 -3027 9z m2132 -39
c-7 -7 -13 -7 -20 0 -6 6 -3 10 10 10 13 0 16 -4 10 -10z m674 -122 c3 -8 2
-12 -4 -9 -6 3 -10 10 -10 16 0 14 7 11 14 -7z m-2073 -151 c13 -16 12 -17 -3
-4 -10 7 -18 15 -18 17 0 8 8 3 21 -13z m444 -2 c-9 -8 -36 -10 -30 -2 2 4 11
8 20 8 8 0 13 -3 10 -6z m-1925 -25 c0 -2 -8 -10 -17 -17 -16 -13 -17 -12 -4
4 13 16 21 21 21 13z m1914 -254 c3 -5 -1 -9 -9 -9 -8 0 -12 4 -9 9 3 4 7 8 9
8 2 0 6 -4 9 -8z m3081 -41 c3 -5 2 -12 -3 -15 -5 -3 -9 1 -9 9 0 17 3 19 12
6z m-4195 -277 c0 -8 -19 -13 -24 -6 -3 5 1 9 9 9 8 0 15 -2 15 -3z m3635 -43
c3 -5 2 -12 -3 -15 -5 -3 -9 1 -9 9 0 17 3 19 12 6z m-2031 -39 c3 -5 -1 -9
-9 -9 -8 0 -12 4 -9 9 3 4 7 8 9 8 2 0 6 -4 9 -8z m-3093 -135 c-10 -9 -11 -8
-5 6 3 10 9 15 12 12 3 -3 0 -11 -7 -18z m2043 15 c3 -5 -1 -9 -9 -9 -8 0 -12
4 -9 9 3 4 7 8 9 8 2 0 6 -4 9 -8z m-1190 -200 c3 -5 -1 -9 -9 -9 -8 0 -12 4
-9 9 3 4 7 8 9 8 2 0 6 -4 9 -8z m950 0 c3 -5 -1 -9 -9 -9 -8 0 -12 4 -9 9 3
4 7 8 9 8 2 0 6 -4 9 -8z m3686 -6 c-7 -7 -13 -7 -20 0 -6 6 -3 10 10 10 13 0
16 -4 10 -10z m-5915 -276 c3 -6 -1 -7 -9 -4 -18 7 -21 14 -7 14 6 0 13 -4 16
-10z m6560 -40 c-3 -5 -12 -10 -18 -10 -7 0 -6 4 3 10 19 12 23 12 15 0z
m-5810 -119 c3 -5 2 -12 -3 -15 -5 -3 -9 1 -9 9 0 17 3 19 12 6z m-835 -195
c0 -2 -7 -7 -16 -10 -8 -3 -12 -2 -9 4 6 10 25 14 25 6z m4554 -4 c3 -5 -1 -9
-9 -9 -8 0 -12 4 -9 9 3 4 7 8 9 8 2 0 6 -4 9 -8z m761 -111 c3 -5 2 -12 -3
-15 -5 -3 -9 1 -9 9 0 17 3 19 12 6z m-5378 -46 c0 -8 -4 -12 -9 -9 -5 3 -6
10 -3 15 9 13 12 11 12 -6z m953 1 c0 -2 -8 -10 -17 -17 -16 -13 -17 -12 -4 4
13 16 21 21 21 13z m5625 -115 c3 -5 2 -12 -3 -15 -5 -3 -9 1 -9 9 0 17 3 19
12 6z m-5235 -7 c0 -8 -19 -13 -24 -6 -3 5 1 9 9 9 8 0 15 -2 15 -3z m4437
-159 c0 -8 -4 -12 -9 -9 -5 3 -6 10 -3 15 9 13 12 11 12 -6z m438 -84 c3 -5 2
-12 -3 -15 -5 -3 -9 1 -9 9 0 17 3 19 12 6z m-1595 -37 c0 -8 -19 -13 -24 -6
-3 5 1 9 9 9 8 0 15 -2 15 -3z m-3684 -50 c1 -9 0 -13 -4 -10 -3 4 -7 14 -8
22 -1 9 0 13 4 10 3 -4 7 -14 8 -22z m275 -7 c-10 -9 -11 -8 -5 6 3 10 9 15
12 12 3 -3 0 -11 -7 -18z m-1151 -143 c0 -8 -19 -13 -24 -6 -3 5 1 9 9 9 8 0
15 -2 15 -3z m2320 -120 c0 -8 -19 -13 -24 -6 -3 5 1 9 9 9 8 0 15 -2 15 -3z
m353 -39 c-3 -9 -8 -14 -10 -11 -3 3 -2 9 2 15 9 16 15 13 8 -4z m-196 -10 c0
-8 -4 -12 -9 -9 -5 3 -6 10 -3 15 9 13 12 11 12 -6z m274 -8 c-10 -9 -11 -8
-5 6 3 10 9 15 12 12 3 -3 0 -11 -7 -18z m2720 6 c13 -16 12 -17 -3 -4 -10 7
-18 15 -18 17 0 8 8 3 21 -13z m-4874 -158 c0 -8 -4 -12 -9 -9 -5 3 -6 10 -3
15 9 13 12 11 12 -6z m558 6 c3 -5 2 -12 -3 -15 -5 -3 -9 1 -9 9 0 17 3 19 12
6z m3399 -199 c3 -5 -1 -9 -9 -9 -8 0 -12 4 -9 9 3 4 7 8 9 8 2 0 6 -4 9 -8z
m-3153 -279 c13 -16 12 -17 -3 -4 -10 7 -18 15 -18 17 0 8 8 3 21 -13z m5479
-239 c0 -8 -19 -13 -24 -6 -3 5 1 9 9 9 8 0 15 -2 15 -3z m-2320 -40 c0 -8
-19 -13 -24 -6 -3 5 1 9 9 9 8 0 15 -2 15 -3z m-4165 -283 c3 -5 2 -12 -3 -15
-5 -3 -9 1 -9 9 0 17 3 19 12 6z m4042 -86 c0 -8 -4 -12 -9 -9 -5 3 -6 10 -3
15 9 13 12 11 12 -6z m-3520 -150 c0 -8 -4 -12 -9 -9 -5 3 -6 10 -3 15 9 13
12 11 12 -6z m558 6 c3 -5 2 -12 -3 -15 -5 -3 -9 1 -9 9 0 17 3 19 12 6z
m2801 -166 c-1 -8 -5 -17 -8 -21 -5 -4 -4 16 1 34 3 9 9 -1 7 -13z m1681 0 c0
-8 -4 -12 -9 -9 -5 3 -6 10 -3 15 9 13 12 11 12 -6z m-86 -12 c13 -16 12 -17
-3 -4 -10 7 -18 15 -18 17 0 8 8 3 21 -13z m-3034 -148 c0 -8 -4 -12 -9 -9 -5
3 -6 10 -3 15 9 13 12 11 12 -6z m-1920 -10 c0 -8 -4 -12 -9 -9 -5 3 -6 10 -3
15 9 13 12 11 12 -6z m2194 -282 c13 -16 12 -17 -3 -4 -17 13 -22 21 -14 21 2
0 10 -8 17 -17z m-676 -22 c3 -5 2 -12 -3 -15 -5 -3 -9 1 -9 9 0 17 3 19 12 6z
m-2475 -87 c0 -8 -19 -13 -24 -6 -3 5 1 9 9 9 8 0 15 -2 15 -3z m6915 -3 c3
-5 2 -12 -3 -15 -5 -3 -9 1 -9 9 0 17 3 19 12 6z m-875 -37 c0 -8 -19 -13 -24
-6 -3 5 1 9 9 9 8 0 15 -2 15 -3z m-3046 -82 c3 -5 -1 -9 -9 -9 -8 0 -12 4 -9
9 3 4 7 8 9 8 2 0 6 -4 9 -8z m2443 -117 c0 -8 -4 -12 -9 -9 -5 3 -6 10 -3 15
9 13 12 11 12 -6z m-5276 -162 c13 -16 12 -17 -3 -4 -10 7 -18 15 -18 17 0 8
8 3 21 -13z m439 13 c0 -2 -8 -10 -17 -17 -16 -13 -17 -12 -4 4 13 16 21 21
21 13z m4280 0 c0 -2 -8 -10 -17 -17 -16 -13 -17 -12 -4 4 13 16 21 21 21 13z
m840 -40 c0 -2 -8 -10 -17 -17 -16 -13 -17 -12 -4 4 13 16 21 21 21 13z m4
-94 c3 -5 -1 -9 -9 -9 -8 0 -12 4 -9 9 3 4 7 8 9 8 2 0 6 -4 9 -8z m989 -197
c-3 -9 -8 -14 -10 -11 -3 3 -2 9 2 15 9 16 15 13 8 -4z m-5023 1 c0 -2 -8 -10
-17 -17 -16 -13 -17 -12 -4 4 13 16 21 21 21 13z m1747 -11 c0 -8 -4 -12 -9
-9 -5 3 -6 10 -3 15 9 13 12 11 12 -6z m-917 -99 c0 -2 -8 -10 -17 -17 -16
-13 -17 -12 -4 4 13 16 21 21 21 13z m-1590 -10 c0 -2 -8 -10 -17 -17 -16 -13
-17 -12 -4 4 13 16 21 21 21 13z m-375 -35 c3 -5 2 -12 -3 -15 -5 -3 -9 1 -9
9 0 17 3 19 12 6z m4562 -16 c0 -8 -4 -12 -9 -9 -5 3 -6 10 -3 15 9 13 12 11
12 -6z m-1472 -35 c3 -6 -1 -7 -9 -4 -18 7 -21 14 -7 14 6 0 13 -4 16 -10z
m2155 -116 c0 -8 -19 -13 -24 -6 -3 5 1 9 9 9 8 0 15 -2 15 -3z m-4230 -280
c0 -8 -19 -13 -24 -6 -3 5 1 9 9 9 8 0 15 -2 15 -3z m3068 -49 c-3 -3 -9 2
-12 12 -6 14 -5 15 5 6 7 -7 10 -15 7 -18z m772 11 c0 -2 -8 -10 -17 -17 -16
-13 -17 -12 -4 4 13 16 21 21 21 13z m187 -11 c0 -8 -4 -12 -9 -9 -5 3 -6 10
-3 15 9 13 12 11 12 -6z m-3882 -64 c3 -5 2 -12 -3 -15 -5 -3 -9 1 -9 9 0 17
3 19 12 6z m2040 -80 c3 -5 2 -12 -3 -15 -5 -3 -9 1 -9 9 0 17 3 19 12 6z
m-1080 -90 c3 -5 2 -12 -3 -15 -5 -3 -9 1 -9 9 0 17 3 19 12 6z m1285 -37 c0
-8 -19 -13 -24 -6 -3 5 1 9 9 9 8 0 15 -2 15 -3z m237 -279 c0 -8 -4 -12 -9
-9 -5 3 -6 10 -3 15 9 13 12 11 12 -6z"/>
</g>
</svg>
